<svg width="173px" height="76px" viewBox="0 0 173 76" version="1.1" xmlns="http://www.w3.org/2000/svg">
  <g id="Symbols" stroke="none" stroke-width="1" fill="none" fill-rule="evenodd">
    <g id="Header" transform="translate(-34.000000, -21.000000)" fill="#2BBBCF">
      <g id="primavera-analytics" transform="translate(34.000000, 21.000000)">
        <g id="Group" transform="translate(87.500000, 28.000000) rotate(0.000000) translate(-87.500000, -28.000000) ">
          <g transform="translate(87.098892, 27.566475) rotate(-0.000000) translate(-87.098892, -27.566475) translate(0.098892, 0.066475)" id="Shape">
            <g transform="translate(79.273007, 14.056432) rotate(-0.000000) translate(-79.273007, -14.056432) translate(55.773007, 0.056432)">
              <g transform="translate(31.533868, 13.518825) rotate(-0.000000) translate(-31.533868, -13.518825) translate(16.533868, 0.018825)">
                <g transform="translate(0.000000, -0.000000)">
                  <path d="M10.6432467,26.7603441 C10.6432467,26.7603441 9.30594339,26.7603441 7.84205066,26.7603441 C5.59914627,26.7603441 3.56397832,25.4336343 2.65188551,23.3785348 C1.93779149,21.7721754 1.11009161,19.902425 0.499865812,18.5204356 C-0.0714094017,17.2359984 -0.0746552836,15.7727155 0.483636402,14.4882783 C1.26589394,12.693318 2.45388671,9.96185657 3.58669949,7.35721302 C5.50501569,2.94785391 9.85449743,0.0960781493 14.6551568,0.0960781493 C21.2150841,0.0960781493 29.4693617,0.0960781493 29.4693617,0.0960781493 C29.4693617,0.0960781493 28.1547796,3.75428537 26.7720339,7.6010935 C24.8829306,12.8526532 19.9134854,16.3547769 14.3403062,16.3547769 C10.1596103,16.3547769 5.73871919,16.3547769 3.82689475,16.3547769 C3.28807836,16.3547769 2.85313019,16.7905101 2.85313019,17.3302989 C2.85313019,17.8700877 3.28807836,18.3058208 3.82689475,18.3058208 C3.99892649,18.3058208 4.18718764,18.3058208 4.37869468,18.3058208 C5.82311212,18.3058208 7.1344484,19.1447696 7.73818244,20.4584725 C8.89371639,22.9623121 10.6432467,26.7603441 10.6432467,26.7603441 Z"></path>
                </g>
              </g>
              <g transform="translate(8.174120, 14.932565) scale(-1, 1) translate(-8.174120, -14.932565) translate(0.174120, 7.932565)">
                <g>
                  <path d="M5.4514088,13.7638952 C5.4514088,13.7638952 4.76644984,13.7638952 4.01665253,13.7638952 C2.86785001,13.7638952 1.82544888,13.0843612 1.35828026,12.0317496 C0.992525481,11.2089805 0.568582437,10.2513038 0.256028349,9.5434559 C-0.0365754784,8.88557368 -0.0382380001,8.13608762 0.24771574,7.47820541 C0.64838348,6.55883583 1.25686644,5.15979518 1.83708653,3.82570998 C2.81963688,1.56725864 5.04741602,0.106593574 7.50628567,0.106593574 C10.8662421,0.106593574 15.0940349,0.106593574 15.0940349,0.106593574 C15.0940349,0.106593574 14.4207136,1.98030874 13.7124793,3.95062433 C12.7448917,6.64044654 10.1995709,8.43421652 7.34502107,8.43421652 C5.20369306,8.43421652 2.93933844,8.43421652 1.96011314,8.43421652 C1.68413453,8.43421652 1.46135661,8.65739681 1.46135661,8.9338739 C1.46135661,9.21035098 1.68413453,9.43353127 1.96011314,9.43353127 C2.04822679,9.43353127 2.14465305,9.43353127 2.24274183,9.43353127 C2.98256401,9.43353127 3.65422279,9.86323662 3.96345184,10.5361086 C4.55530958,11.8185625 5.4514088,13.7638952 5.4514088,13.7638952 Z"></path>
                </g>
              </g>
            </g>
            <g transform="translate(86.588524, 43.549721) rotate(-0.000000) translate(-86.588524, -43.549721) translate(0.088524, 33.049721)" fill-rule="nonzero">
              <path d="M0.0687989902,0.0332365766 L6.85157737,0.0332365766 C7.16859853,0.0332365766 7.43032531,0.0369295296 7.63675769,0.0406224826 C7.84687637,0.0480083885 8.14546607,0.0664731533 8.54358567,0.0997097299 C8.93801898,0.132946307 9.27347161,0.180954695 9.55362985,0.243734895 C9.83378808,0.306515096 10.1655544,0.402531873 10.5452426,0.535478179 C10.9249307,0.664731533 11.2530107,0.816142604 11.5221101,0.989711393 C11.7912095,1.16328018 12.075054,1.39593622 12.3662711,1.6802936 C12.6611745,1.96465097 12.8970972,2.28224493 13.0777256,2.62938251 C13.2546676,2.97652009 13.4021193,3.39382377 13.5163944,3.88867947 C13.6343558,4.37984221 13.6896501,4.9227063 13.6896501,5.50988582 C13.6896501,6.36295795 13.5938065,7.12370626 13.4021193,7.79951665 C13.2104321,8.47532704 12.9597642,9.04034885 12.6574882,9.49458206 C12.3515259,9.94881528 11.9607789,10.3402683 11.4778746,10.6689411 C10.9949703,10.9976139 10.5194385,11.2524277 10.0475931,11.4296894 C9.5757476,11.6069512 9.01543113,11.7472834 8.37770251,11.850686 C7.73628759,11.9503958 7.16122595,12.0168689 6.65620386,12.0464126 C6.14749548,12.0722632 5.56137496,12.087035 4.89784229,12.087035 C4.24168221,12.087035 3.4528156,12.0537985 2.52755615,11.9873253 C2.52755615,11.9873253 2.52755615,15.6064192 2.52755615,18.1582497 C2.52755615,19.5209493 1.42535467,20.6214493 0.0687989902,20.6214493 C0.0687989902,20.6214493 0.0687989902,20.6214493 0.0687989902,20.6214493 L0.0687989902,0.0332365766 Z M2.52755615,9.81217602 C3.4528156,9.88972803 4.33015323,9.93035051 5.15956907,9.93035051 C5.63141452,9.93035051 6.02584783,9.92665756 6.34286899,9.9155787 C6.66357645,9.90449984 7.05063717,9.87126326 7.51511004,9.81217602 C7.97958291,9.75678172 8.36295734,9.67553676 8.67260591,9.57582703 C8.98225449,9.47242434 9.31033453,9.32101327 9.65684604,9.11790086 C10.0033575,8.91478845 10.2798295,8.6747465 10.4862619,8.40146798 C10.6963806,8.12818947 10.86595,7.77735893 11.0023428,7.36005525 C11.1350494,6.93905861 11.2050889,6.45897473 11.2050889,5.91611064 C11.2050889,5.35847475 11.1313631,4.8599261 10.9875977,4.43154355 C10.840146,4.00316101 10.6300273,3.65602343 10.3572416,3.39382377 C10.0807697,3.13531706 9.79323886,2.92112579 9.49096287,2.75124996 C9.18500059,2.58137412 8.82005762,2.45950667 8.38876138,2.38934057 C7.96115144,2.31548151 7.5851496,2.26747312 7.26075585,2.2453154 C6.94004839,2.21946473 6.55667396,2.20838587 6.11431885,2.20838587 L2.52755615,2.20838587 L2.52755615,9.81217602 Z"></path>
              <path d="M32.9984508,5.68345461 C32.9984508,6.37034386 32.9173523,7.02399653 32.7514692,7.64071967 C32.5892723,8.25744282 32.3312318,8.84831529 31.9847203,9.40964414 C31.6382088,9.96728004 31.1589908,10.4547498 30.5470662,10.8646676 C29.9351416,11.2745854 29.2200009,11.5774075 28.3979576,11.7694411 L34.1964959,20.6214493 C34.1964959,20.6214493 33.5477084,20.6214493 32.8768031,20.6214493 C31.9884066,20.6214493 31.1589908,20.1709091 30.6724001,19.4249326 C29.1389024,17.0651356 25.8802198,12.0464126 25.8802198,12.0464126 L21.9063963,12.0464126 C21.9063963,12.0464126 21.9063963,15.6138051 21.9063963,18.1471708 C21.9063963,19.5135634 20.7968223,20.6214493 19.432894,20.6214493 C19.432894,20.6214493 19.432894,20.6214493 19.432894,20.6214493 L19.432894,0.0332365766 L26.9824212,0.0332365766 C27.3289328,0.0332365766 27.6422676,0.0443154355 27.9224259,0.0627802003 C28.2025841,0.0812449651 28.5601545,0.132946307 28.9988233,0.214191272 C29.4374921,0.29912919 29.8245528,0.409917779 30.1636918,0.550249991 C30.4991444,0.690582204 30.8567148,0.901080522 31.225344,1.1854379 C31.5976596,1.46979528 31.9073082,1.805854 32.1506035,2.19361406 C32.3975851,2.57768117 32.6003312,3.07253686 32.7588418,3.67079524 C32.9173523,4.26905362 32.9984508,4.94117106 32.9984508,5.68345461 Z M21.9063963,9.87126326 L25.4489235,9.87126326 C25.9392004,9.87126326 26.374183,9.85649145 26.7501848,9.82325487 C27.1261867,9.78632534 27.5685418,9.69769447 28.0735639,9.5462834 C28.5785859,9.39487233 28.9988233,9.18806697 29.3305896,8.92217435 C29.662356,8.65628174 29.9498868,8.27221463 30.1858095,7.76258712 C30.4217322,7.25665257 30.5396936,6.65470123 30.5396936,5.96042608 C30.5396936,5.46926333 30.4770266,5.02241603 30.3516927,4.62727006 C30.2263587,4.23212409 30.0678482,3.90345128 29.8724746,3.64863752 C29.6807874,3.39382377 29.4448647,3.17224659 29.1647065,2.98390599 C28.8845482,2.79556539 28.6154489,2.65154023 28.3537221,2.55552345 C28.0956816,2.45950667 27.8044645,2.38195466 27.4874433,2.32286741 C27.1704222,2.26747312 26.9050091,2.23054359 26.6985767,2.21577178 C26.4921443,2.20099996 26.2746531,2.19361406 26.0424166,2.19361406 L21.9063963,2.19361406 L21.9063963,9.87126326 Z"></path>
              <path d="M40.6622531,2.4964362 C40.6622531,1.13742951 41.7644546,0.0332365766 43.1210102,0.0332365766 C43.1210102,0.0332365766 43.1210102,0.0332365766 43.1210102,0.0332365766 C43.1210102,0.0332365766 43.1210102,12.6963723 43.1210102,18.1582497 C43.1210102,19.5209493 42.0188088,20.6214493 40.6622531,20.6214493 C40.6622531,20.6214493 40.6622531,20.6214493 40.6622531,20.6214493 C40.6622531,20.6214493 40.6622531,7.96200658 40.6622531,2.4964362 Z"></path>
              <path d="M50.7848126,0.0332365766 C50.7848126,0.0332365766 51.7579938,0.0332365766 52.6721944,0.0332365766 C53.6490619,0.0332365766 54.5411447,0.576100662 54.998245,1.4365587 C56.7197436,4.70112912 60.8520776,12.5228035 60.8520776,12.5228035 C60.8520776,12.5228035 65.0581375,4.67527845 66.8017539,1.42178689 C67.2625405,0.568714756 68.150937,0.0332365766 69.1204319,0.0332365766 C69.9535341,0.0332365766 70.8013814,0.0332365766 70.8013814,0.0332365766 L70.8013814,20.6214493 C70.8013814,20.6214493 70.8013814,20.6214493 70.8013814,20.6214493 C69.4448257,20.6214493 68.3426242,19.5209493 68.3426242,18.1582497 C68.3426242,13.4386558 68.3426242,3.57108551 68.3426242,3.57108551 C68.3426242,3.57108551 64.1402506,10.9865351 62.5883215,13.7230132 C62.2381237,14.3434293 61.5856499,14.7274964 60.8741954,14.7274964 C60.818901,14.7274964 60.7672929,14.7274964 60.7119985,14.7274964 C60.0042303,14.7274964 59.3480703,14.3434293 58.9978725,13.7230132 C57.4459433,10.9865351 53.2435697,3.57108551 53.2435697,3.57108551 C53.2435697,3.57108551 53.2435697,13.4386558 53.2435697,18.1582497 C53.2435697,19.5209493 52.1450545,20.6214493 50.7848126,20.6214493 C50.7848126,20.6214493 50.7848126,20.6214493 50.7848126,20.6214493 L50.7848126,0.0332365766 Z"></path>
              <path d="M83.0214413,0.0332365766 C83.0214413,0.0332365766 83.4416787,0.0332365766 83.9577596,0.0332365766 C85.07102,0.0332365766 86.0626327,0.734897639 86.4349483,1.78738923 C88.2006824,6.76548982 93.1181968,20.6214493 93.1181968,20.6214493 C93.1181968,20.6214493 92.8527837,20.6214493 92.4988996,20.6214493 C91.3782666,20.6214493 90.3829676,19.9124024 90.0143384,18.8562178 C89.3987275,17.0909863 88.5471939,14.6388655 88.5471939,14.6388655 L80.0724072,14.6388655 C80.0724072,14.6388655 79.2171874,17.0909863 78.6052628,18.8562178 C78.2366335,19.9124024 77.2413345,20.6214493 76.1207016,20.6214493 C75.8810926,20.6214493 75.7188957,20.6214493 75.7188957,20.6214493 L83.0214413,0.0332365766 Z M84.3079574,2.44104191 L80.8096658,12.4784881 L87.7951902,12.4784881 L84.3079574,2.44104191 Z"></path>
              <path d="M95.8644847,0.0332365766 C95.8644847,0.0332365766 96.3252713,0.0332365766 96.8782152,0.0332365766 C98.0172796,0.0332365766 99.0236375,0.768134216 99.3775216,1.85016943 C100.87047,6.41835225 104.656293,18.0142245 104.656293,18.0142245 C104.656293,18.0142245 108.445801,6.41835225 109.935064,1.85016943 C110.288948,0.768134216 111.298992,0.0332365766 112.43437,0.0332365766 C112.884098,0.0332365766 113.234295,0.0332365766 113.234295,0.0332365766 L106.075515,20.6214493 C106.075515,20.6214493 105.526258,20.6214493 104.892215,20.6214493 C103.771582,20.6214493 102.776283,19.9124024 102.407654,18.8525249 C100.67141,13.8633454 95.8644847,0.0332365766 95.8644847,0.0332365766 Z"></path>
              <path d="M118.295575,20.6214493 L118.295575,0.0332365766 L130.342379,0.0332365766 C130.342379,0.0332365766 130.342379,0.0332365766 130.342379,0.0369295296 C130.342379,0.609337238 130.113829,1.16328018 129.704651,1.57319796 C129.299159,1.97942279 128.749901,2.20838587 128.174839,2.20838587 C125.343767,2.20838587 120.754332,2.20838587 120.754332,2.20838587 L120.754332,8.92956026 L129.54614,8.92956026 C129.54614,8.92956026 129.54614,8.92956026 129.54614,8.92956026 C129.54614,9.50566092 129.31759,10.0596039 128.912098,10.4658287 C128.502919,10.8757465 127.953662,11.1047096 127.3786,11.1047096 C124.772391,11.1047096 120.754332,11.1047096 120.754332,11.1047096 L120.754332,18.449993 C120.754332,18.449993 125.343767,18.449993 128.174839,18.449993 C128.749901,18.449993 129.299159,18.6789561 129.704651,19.0851809 C130.113829,19.4914057 130.342379,20.0453487 130.342379,20.6214493 C130.342379,20.6214493 130.342379,20.6214493 130.342379,20.6214493 L118.295575,20.6214493 Z"></path>
              <path d="M150.414243,5.68345461 C150.414243,6.37034386 150.333144,7.02399653 150.170947,7.64071967 C150.005064,8.25744282 149.75071,8.84831529 149.404198,9.40964414 C149.057687,9.96728004 148.574783,10.4547498 147.962858,10.8646676 C147.350933,11.2745854 146.635793,11.5774075 145.817436,11.7694411 L151.615974,20.6214493 C151.615974,20.6214493 150.9635,20.6214493 150.296281,20.6214493 C149.404198,20.6214493 148.574783,20.1709091 148.088192,19.4249326 C146.558381,17.0651356 143.299698,12.0464126 143.299698,12.0464126 L139.322188,12.0464126 C139.322188,12.0464126 139.322188,15.6138051 139.322188,18.1471708 C139.322188,19.5135634 138.2163,20.6214493 136.848686,20.6214493 C136.848686,20.6214493 136.848686,20.6214493 136.848686,20.6214493 L136.848686,0.0332365766 L144.398213,0.0332365766 C144.744725,0.0332365766 145.058059,0.0443154355 145.338218,0.0627802003 C145.618376,0.0812449651 145.979633,0.132946307 146.414615,0.214191272 C146.853284,0.29912919 147.244031,0.409917779 147.579484,0.550249991 C147.918623,0.690582204 148.272507,0.901080522 148.644822,1.1854379 C149.013451,1.46979528 149.3231,1.805854 149.570082,2.19361406 C149.813377,2.57768117 150.016123,3.07253686 150.17832,3.67079524 C150.33683,4.26905362 150.414243,4.94117106 150.414243,5.68345461 Z M139.322188,9.87126326 L142.864715,9.87126326 C143.358679,9.87126326 143.789975,9.85649145 144.165977,9.82325487 C144.541979,9.78632534 144.984334,9.69769447 145.489356,9.5462834 C145.998064,9.39487233 146.414615,9.18806697 146.750068,8.92217435 C147.081834,8.65628174 147.365679,8.27221463 147.601601,7.76258712 C147.837524,7.25665257 147.955485,6.65470123 147.955485,5.96042608 C147.955485,5.46926333 147.892818,5.02241603 147.767485,4.62727006 C147.642151,4.23212409 147.48364,3.90345128 147.291953,3.64863752 C147.100266,3.39382377 146.860657,3.17224659 146.584185,2.98390599 C146.304026,2.79556539 146.031241,2.65154023 145.7732,2.55552345 C145.511473,2.45950667 145.223943,2.38195466 144.903235,2.32286741 C144.586214,2.26747312 144.324487,2.23054359 144.118055,2.21577178 C143.911622,2.20099996 143.690445,2.19361406 143.458208,2.19361406 L139.322188,2.19361406 L139.322188,9.87126326 Z"></path>
              <path d="M162.634303,0.0332365766 C162.634303,0.0332365766 163.05454,0.0332365766 163.570621,0.0332365766 C164.683881,0.0332365766 165.675494,0.734897639 166.04781,1.78738923 C167.813544,6.76548982 172.731058,20.6214493 172.731058,20.6214493 C172.731058,20.6214493 172.465645,20.6214493 172.111761,20.6214493 C170.991128,20.6214493 169.995829,19.9124024 169.6272,18.8562178 C169.015275,17.0909863 168.160055,14.6388655 168.160055,14.6388655 L159.685268,14.6388655 C159.685268,14.6388655 158.833735,17.0909863 158.218124,18.8562178 C157.849495,19.9124024 156.854196,20.6214493 155.733563,20.6214493 C155.493954,20.6214493 155.331757,20.6214493 155.331757,20.6214493 L162.634303,0.0332365766 Z M163.924505,2.44104191 L160.422527,12.4784881 L167.408051,12.4784881 L163.924505,2.44104191 Z"></path>
            </g>
          </g>
        </g>
        <g id="Group" transform="translate(87.500000, 69.500000) rotate(0.000000) translate(-87.500000, -69.500000) translate(0.000000, 61.000000)" font-family="Helvetica" font-size="14" font-weight="normal">
          <g transform="translate(87.500000, 8.500000) rotate(-0.000000) translate(-87.500000, -8.500000) " id="CASE-MANAGEMENT">
            <text>
              <tspan x="16.3242188" y="14">CASE MANAGEMENT</tspan>
            </text>
          </g>
        </g>
      </g>
    </g>
  </g>
</svg>
