<?xml version="1.0" standalone="no"?>
<!DOCTYPE svg PUBLIC "-//W3C//DTD SVG 20010904//EN"
 "http://www.w3.org/TR/2001/REC-SVG-20010904/DTD/svg10.dtd">
<svg version="1.0" xmlns="http://www.w3.org/2000/svg"
 width="1312.000000pt" height="1312.000000pt" viewBox="0 0 1312.000000 1312.000000"
 preserveAspectRatio="xMidYMid meet">
<metadata>
Created by potrace 1.11, written by Peter Selinger 2001-2013
</metadata>
<g transform="translate(0.000000,1312.000000) scale(0.100000,-0.100000)"
fill="#000000" stroke="none">
<path d="M8579 10396 c-2 -2 -44 -7 -92 -11 -49 -3 -98 -8 -110 -10 -12 -2
-44 -6 -70 -10 -27 -4 -59 -8 -70 -11 -12 -2 -38 -6 -57 -9 -19 -3 -48 -8 -65
-11 -16 -4 -39 -8 -50 -9 -11 -2 -20 -4 -20 -5 0 -1 -11 -4 -25 -6 -14 -2 -68
-16 -120 -30 -233 -62 -393 -120 -608 -220 -40 -19 -74 -34 -76 -34 -8 0 -247
-136 -321 -183 -72 -46 -237 -161 -268 -187 -14 -12 -39 -32 -92 -75 -118 -95
-338 -312 -426 -420 -29 -36 -56 -65 -61 -65 -4 0 -8 -6 -8 -14 0 -8 -3 -16
-8 -18 -10 -4 -142 -183 -172 -233 -13 -22 -27 -42 -30 -45 -11 -9 -70 -110
-70 -120 0 -6 -3 -10 -7 -10 -5 0 -13 -10 -19 -23 -6 -12 -42 -83 -80 -157
-77 -151 -114 -231 -114 -248 0 -7 -4 -12 -10 -12 -5 0 -10 -7 -10 -16 0 -9
-6 -28 -13 -42 -16 -31 -37 -78 -65 -142 -11 -25 -28 -63 -38 -85 -9 -22 -18
-42 -19 -45 -1 -3 -8 -18 -15 -35 -7 -16 -14 -32 -16 -35 -1 -3 -5 -15 -9 -27
-4 -13 -12 -23 -18 -23 -6 0 -7 -3 -4 -6 3 -4 1 -16 -5 -28 -7 -11 -13 -23
-13 -26 -1 -3 -9 -22 -18 -42 -9 -21 -24 -55 -33 -75 -38 -91 -47 -110 -65
-144 -10 -20 -16 -39 -12 -43 3 -3 1 -6 -5 -6 -7 0 -12 -5 -12 -11 0 -5 -11
-35 -25 -65 -14 -30 -25 -56 -25 -58 0 -2 -16 -39 -37 -82 -20 -44 -37 -83
-39 -89 -1 -5 -30 -71 -63 -146 -34 -75 -61 -141 -61 -147 0 -5 -7 -15 -15
-22 -8 -7 -15 -22 -15 -34 0 -12 -4 -26 -9 -31 -22 -23 -248 -553 -267 -625
-26 -100 -43 -177 -49 -226 -10 -73 -13 -324 -5 -324 4 0 6 -10 5 -22 -5 -65
53 -287 104 -401 17 -38 31 -75 31 -83 0 -8 5 -14 10 -14 6 0 10 -9 10 -20 0
-11 4 -20 10 -20 5 0 9 -3 8 -7 -1 -5 7 -26 17 -48 10 -22 19 -42 19 -45 1 -3
9 -21 18 -40 9 -19 55 -122 103 -229 47 -107 102 -227 121 -268 19 -41 37 -85
40 -99 3 -13 10 -24 15 -24 5 0 9 -7 9 -15 0 -8 9 -30 20 -50 11 -19 20 -38
21 -43 0 -4 16 -40 35 -81 19 -41 34 -76 34 -78 0 -2 11 -28 24 -56 13 -29 38
-83 56 -122 55 -121 107 -223 129 -254 12 -16 21 -32 21 -35 0 -7 62 -98 76
-111 6 -5 28 -32 50 -59 54 -68 157 -169 253 -248 73 -60 294 -185 406 -230
108 -42 197 -68 330 -93 84 -16 124 -18 599 -22 341 -3 492 -1 499 6 8 8 8 11
-1 11 -7 0 -12 4 -12 9 0 5 -23 58 -52 118 -28 59 -52 110 -52 113 -1 3 -12
28 -25 55 -13 28 -40 86 -61 130 -21 44 -53 114 -73 155 -19 41 -50 107 -67
145 -28 62 -95 206 -149 320 -11 22 -36 76 -57 120 -20 44 -59 126 -85 183
-27 57 -49 105 -49 106 0 2 -32 71 -71 152 -39 82 -82 174 -97 204 -80 169
-232 338 -391 437 -65 40 -195 99 -266 121 -120 36 -164 41 -367 45 -87 2
-161 7 -165 10 -3 4 -14 7 -22 7 -21 0 -83 33 -117 62 -52 46 -87 127 -86 203
0 46 6 85 12 85 3 0 7 10 7 22 1 13 7 24 13 26 5 2 10 9 10 15 1 27 103 107
156 122 16 5 751 10 1634 11 1586 1 1797 4 1975 28 22 3 56 8 75 10 19 3 35 5
35 6 0 1 16 3 35 5 31 3 125 21 215 40 24 5 187 45 240 59 6 1 42 12 80 24 39
12 75 22 80 24 6 1 62 21 125 45 63 24 120 45 125 47 10 3 56 23 147 65 26 11
51 21 57 21 5 0 11 3 13 8 2 4 53 32 113 62 61 30 112 57 115 60 5 5 34 22 75
44 22 13 44 26 165 105 47 31 90 59 95 64 6 4 55 41 109 82 165 125 436 372
511 468 6 7 28 33 50 57 22 25 56 65 75 89 19 24 40 48 46 55 5 6 30 38 54 71
24 33 47 62 50 65 4 3 9 10 11 15 2 6 38 62 80 125 42 63 97 151 122 196 48
84 167 319 167 328 0 3 13 34 28 68 16 35 38 88 49 118 28 73 92 247 105 285
6 17 16 44 23 60 8 17 17 43 21 59 4 16 13 41 20 55 8 14 17 41 20 59 3 17 10
32 15 32 5 0 8 3 7 8 -2 10 13 58 55 172 76 207 109 295 111 305 2 6 7 19 11
30 39 101 55 143 55 149 0 5 6 22 14 39 12 26 35 93 41 117 1 3 6 16 12 30 6
14 27 72 47 130 21 58 44 117 52 133 8 15 13 27 10 27 -3 0 3 20 14 45 11 25
17 45 14 45 -3 0 2 12 10 28 13 25 76 194 80 217 1 6 4 15 7 20 4 6 12 28 19
50 7 22 20 56 28 75 9 19 17 41 18 48 2 10 -443 12 -2265 12 -1248 0 -2270 -2
-2272 -4z"/>
<path d="M5 8082 c-2 -3 -1 -10 2 -16 4 -6 9 -19 10 -30 2 -10 10 -33 17 -50
21 -45 186 -501 191 -528 2 -9 9 -26 15 -37 9 -17 82 -216 94 -256 4 -15 17
-47 26 -70 5 -11 21 -54 35 -95 48 -138 127 -299 201 -411 30 -46 54 -86 54
-91 0 -4 3 -8 8 -8 4 0 14 -11 22 -24 87 -138 348 -376 547 -498 236 -144 522
-247 768 -274 28 -3 64 -9 81 -13 17 -5 38 -5 47 1 10 5 17 5 17 0 0 -4 391
-8 869 -9 844 0 870 -1 902 -20 77 -44 100 -142 50 -209 -33 -45 -64 -56 -162
-60 -144 -4 -195 -16 -298 -67 -95 -48 -185 -142 -244 -255 -26 -51 -47 -94
-48 -97 0 -2 -19 -44 -41 -92 -23 -49 -42 -90 -43 -93 0 -3 -16 -36 -34 -75
-18 -38 -49 -104 -68 -145 -19 -41 -50 -106 -68 -145 -18 -38 -52 -113 -76
-165 -24 -52 -48 -98 -53 -102 -6 -4 -4 -10 6 -13 19 -7 544 0 568 7 8 3 34 9
58 13 23 4 45 12 48 16 3 5 12 9 20 9 23 0 133 55 198 99 82 55 169 142 224
226 26 38 47 72 48 75 0 3 14 34 31 70 71 149 141 310 135 310 -4 0 -2 4 4 8
5 4 20 30 32 58 12 28 35 80 51 115 16 35 38 85 50 112 12 26 30 66 40 90 11
23 23 55 26 70 4 15 11 30 16 32 4 3 6 12 3 19 -3 8 2 30 10 50 8 20 11 36 5
36 -6 0 -6 7 -1 18 10 19 8 158 -2 212 -10 51 -41 148 -67 205 -12 28 -23 52
-24 55 0 3 -9 23 -19 45 -63 136 -196 444 -196 454 0 5 -7 14 -15 21 -9 7 -14
15 -11 17 4 4 -46 123 -104 248 -10 22 -29 65 -42 95 -119 286 -280 519 -479
696 -99 88 -116 102 -140 114 -21 12 -28 17 -62 45 -79 67 -388 210 -517 241
-8 2 -40 10 -70 18 -30 8 -71 17 -90 20 -19 2 -46 7 -60 10 -14 3 -54 9 -90
12 -72 7 -2398 13 -2405 6z"/>
</g>
</svg>
